<?xml version="1.0" encoding="utf-8"?>
<!-- Generator: Adobe Illustrator 29.2.0, SVG Export Plug-In . SVG Version: 9.03 Build 55982)  -->
<svg version="1.1" id="레이어_1" xmlns="http://www.w3.org/2000/svg" xmlns:xlink="http://www.w3.org/1999/xlink" x="0px"
	 y="0px" viewBox="0 0 800 800" enable-background="new 0 0 800 800" xml:space="preserve">
<g>
	<g>
		<defs>
			<polygon id="SVGID_00000112603034716526927830000003693716252242844324_" points="400,396.1 67.8,587.1 400,779.5 732.2,587.1 
							"/>
		</defs>
		
			<radialGradient id="SVGID_00000011715787780075043560000009277675793833937553_" cx="400" cy="587.8291" r="271.1811" gradientUnits="userSpaceOnUse">
			<stop  offset="0" style="stop-color:#1ABED9"/>
			<stop  offset="0.623" style="stop-color:#8AEBFC"/>
			<stop  offset="0.783" style="stop-color:#A9F4FD"/>
			<stop  offset="1" style="stop-color:#CFFFFF"/>
		</radialGradient>
		
			<use xlink:href="#SVGID_00000112603034716526927830000003693716252242844324_"  overflow="visible" fill="url(#SVGID_00000011715787780075043560000009277675793833937553_)"/>
		<clipPath id="SVGID_00000075866594467175698810000008237703466957326753_">
			<use xlink:href="#SVGID_00000112603034716526927830000003693716252242844324_"  overflow="visible"/>
		</clipPath>
		<radialGradient id="SVGID_1_" cx="303.0771" cy="323.8469" r="1.061125e-02" gradientUnits="userSpaceOnUse">
			<stop  offset="0" style="stop-color:#1ABED9"/>
			<stop  offset="0.623" style="stop-color:#8AEBFC"/>
			<stop  offset="0.783" style="stop-color:#A9F4FD"/>
			<stop  offset="1" style="stop-color:#CFFFFF"/>
		</radialGradient>
		
			<line clip-path="url(#SVGID_00000075866594467175698810000008237703466957326753_)" fill="url(#SVGID_1_)" x1="303.1" y1="323.8" x2="303.1" y2="323.9"/>
		
			<linearGradient id="SVGID_00000181786330725473378500000005653256150540287638_" gradientUnits="userSpaceOnUse" x1="400" y1="396.1155" x2="400" y2="779.5427">
			<stop  offset="0.37" style="stop-color:#03ABFF"/>
			<stop  offset="1" style="stop-color:#80E1FF"/>
		</linearGradient>
		
			<polygon clip-path="url(#SVGID_00000075866594467175698810000008237703466957326753_)" fill="url(#SVGID_00000181786330725473378500000005653256150540287638_)" points="
			400,396.1 67.8,587.1 400,779.5 732.2,587.1 		"/>
		
			<linearGradient id="SVGID_00000022547522877863606550000016313940101387381385_" gradientUnits="userSpaceOnUse" x1="400" y1="680.7952" x2="400" y2="297.368">
			<stop  offset="0" style="stop-color:#80E1FF"/>
			<stop  offset="0.5" style="stop-color:#03ABFF"/>
		</linearGradient>
		
			<polygon clip-path="url(#SVGID_00000075866594467175698810000008237703466957326753_)" fill="url(#SVGID_00000022547522877863606550000016313940101387381385_)" points="
			400,297.4 67.8,488.3 400,680.8 732.2,488.3 		"/>
		
			<radialGradient id="SVGID_00000036248231336044202520000018186177495216000421_" cx="301.0156" cy="407.9043" r="1.061125e-02" gradientUnits="userSpaceOnUse">
			<stop  offset="0" style="stop-color:#1ABED9"/>
			<stop  offset="0.623" style="stop-color:#8AEBFC"/>
			<stop  offset="0.783" style="stop-color:#A9F4FD"/>
			<stop  offset="1" style="stop-color:#CFFFFF"/>
		</radialGradient>
		
			<line clip-path="url(#SVGID_00000075866594467175698810000008237703466957326753_)" fill="url(#SVGID_00000036248231336044202520000018186177495216000421_)" x1="301" y1="407.9" x2="301" y2="407.9"/>
		
			<radialGradient id="SVGID_00000075847650951914380550000008556920006901397644_" cx="261.1262" cy="630.9846" r="1.061125e-02" gradientUnits="userSpaceOnUse">
			<stop  offset="0" style="stop-color:#1ABED9"/>
			<stop  offset="0.623" style="stop-color:#8AEBFC"/>
			<stop  offset="0.783" style="stop-color:#A9F4FD"/>
			<stop  offset="1" style="stop-color:#CFFFFF"/>
		</radialGradient>
		
			<line clip-path="url(#SVGID_00000075866594467175698810000008237703466957326753_)" fill="url(#SVGID_00000075847650951914380550000008556920006901397644_)" x1="261.1" y1="631" x2="261.1" y2="631"/>
		
			<radialGradient id="SVGID_00000166672130011207221290000007170922353529995408_" cx="261.1262" cy="395.3804" r="1.061125e-02" gradientUnits="userSpaceOnUse">
			<stop  offset="0" style="stop-color:#1ABED9"/>
			<stop  offset="0.623" style="stop-color:#8AEBFC"/>
			<stop  offset="0.783" style="stop-color:#A9F4FD"/>
			<stop  offset="1" style="stop-color:#CFFFFF"/>
		</radialGradient>
		
			<line clip-path="url(#SVGID_00000075866594467175698810000008237703466957326753_)" fill="url(#SVGID_00000166672130011207221290000007170922353529995408_)" x1="261.1" y1="395.4" x2="261.1" y2="395.4"/>
		
			<radialGradient id="SVGID_00000001623004693095352740000007338980191163439028_" cx="595.6677" cy="395.3801" r="1.061125e-02" gradientUnits="userSpaceOnUse">
			<stop  offset="0" style="stop-color:#1ABED9"/>
			<stop  offset="0.623" style="stop-color:#8AEBFC"/>
			<stop  offset="0.783" style="stop-color:#A9F4FD"/>
			<stop  offset="1" style="stop-color:#CFFFFF"/>
		</radialGradient>
		
			<line clip-path="url(#SVGID_00000075866594467175698810000008237703466957326753_)" fill="url(#SVGID_00000001623004693095352740000007338980191163439028_)" x1="595.7" y1="395.4" x2="595.7" y2="395.4"/>
		
			<linearGradient id="SVGID_00000178905696401648216010000007176104984192975534_" gradientUnits="userSpaceOnUse" x1="400" y1="587.8291" x2="400" y2="204.4019">
			<stop  offset="0" style="stop-color:#80E1FF"/>
			<stop  offset="0.1638" style="stop-color:#4CCBFF"/>
			<stop  offset="0.3114" style="stop-color:#24B9FF"/>
			<stop  offset="0.4283" style="stop-color:#0CAFFF"/>
			<stop  offset="0.5" style="stop-color:#03ABFF"/>
		</linearGradient>
		
			<polygon clip-path="url(#SVGID_00000075866594467175698810000008237703466957326753_)" fill="url(#SVGID_00000178905696401648216010000007176104984192975534_)" points="
			400,204.4 67.8,395.4 400,587.8 732.2,395.4 		"/>
	</g>
	<g>
		
			<linearGradient id="SVGID_00000021095238356188216710000008193413130628145326_" gradientUnits="userSpaceOnUse" x1="384.2327" y1="417.0424" x2="83.616" y2="190.5114">
			<stop  offset="0.25" style="stop-color:#03ABFF"/>
			<stop  offset="0.9" style="stop-color:#80E1FF"/>
		</linearGradient>
		<polygon fill="url(#SVGID_00000021095238356188216710000008193413130628145326_)" points="400,20.5 67.8,211.4 67.8,587.1 
			400,396.1 		"/>
	</g>
	<g>
		
			<linearGradient id="SVGID_00000179626588813623434660000000550681752894965678_" gradientUnits="userSpaceOnUse" x1="7806.9712" y1="444.9459" x2="7643.9629" y2="162.6075" gradientTransform="matrix(-1 0 0 1 8291.543 0)">
			<stop  offset="0.35" style="stop-color:#03ABFF"/>
			<stop  offset="1" style="stop-color:#80E1FF"/>
		</linearGradient>
		<polygon fill="url(#SVGID_00000179626588813623434660000000550681752894965678_)" points="400,20.5 732.2,211.4 732.2,587.1 
			400,396.1 		"/>
	</g>
	<path fill="#FFFFFF" d="M691.6,395.7L691.6,395.7c-0.1-38.6-48.5-75.1-122.6-97.7c17-75.6,9.3-135.7-24.3-154.8
		c-7.7-4.5-16.7-6.6-26.5-6.6l0-0.1c-32.7,0.1-75.4,23.4-118.5,63.9c-43.3-40.1-86.1-63-118.8-63l0,0.1c-10,0-19,2.2-26.8,6.7
		c-33.3,19.3-40.7,79.3-23.4,154.6c-73.8,22.9-121.9,59.5-121.8,98c0.1,38.6,48.5,75.1,122.6,97.7c-17,75.6-9.3,135.7,24.3,154.8
		c7.7,4.5,16.8,6.6,26.7,6.6c32.7-0.1,75.4-23.4,118.5-63.9c43.3,40.1,86.1,63,118.8,63c10,0,19-2.2,26.8-6.7
		c33.3-19.3,40.7-79.3,23.4-154.6C643.7,470.8,691.7,434.2,691.6,395.7z M518.2,162.9l0,0.1c5.5,0,9.9,1.1,13.5,3.1
		c16.2,9.2,23.2,44.5,17.8,89.9c-1.3,11.2-3.4,22.9-6,34.9c-23.3-5.7-48.7-10-75.4-12.8c-16.1-21.9-32.7-41.9-49.5-59.3
		C457.2,182.8,493.5,163,518.2,162.9z M454.1,488.7c-17.7,1.6-35.6,2.4-53.7,2.5c-17.9,0-35.9-0.8-53.5-2.2
		c-9.9-14.1-19.5-29.2-28.8-45.1c-9.1-15.5-17.3-31.3-24.8-47.2c7.3-15.9,15.6-31.9,24.5-47.4c9.2-16,18.7-31.3,28.5-45.4
		c17.7-1.6,35.6-2.4,53.7-2.5c17.9,0,35.9,0.8,53.5,2.2c9.9,14.1,19.5,29.2,28.8,45.1c9.1,15.5,17.3,31.3,24.8,47.2
		c-7.5,15.9-15.6,31.9-24.5,47.4v0C473.4,459.3,464,474.6,454.1,488.7z M295.2,457.2c5.6,9.5,11.3,18.7,17.2,27.8
		c-16.9-2.5-33.1-5.5-48.7-9.3c4.4-15.3,9.8-31.1,16-46.9C284.4,438.2,289.6,447.7,295.2,457.2z M263,317.2
		c15.6-3.7,31.9-6.9,48.9-9.5l0,0c-5.8,9.2-11.6,18.5-17.1,28.2c-5.4,9.5-10.5,19-15.4,28.5C273,348.5,267.5,332.6,263,317.2z
		 M505.6,456.4c5.4-9.5,10.5-19.1,15.4-28.6l0,0c6.4,15.9,11.9,31.8,16.5,47.2c-15.6,3.8-31.9,7.1-48.9,9.6
		C494.4,475.5,500.2,466.1,505.6,456.4z M505.3,335.2c-5.5-9.5-11.3-18.7-17.1-27.8c16.9,2.5,33.1,5.5,48.7,9.3l0,0
		c-4.4,15.3-9.8,31.1-16,46.9C516,354.2,510.9,344.7,505.3,335.2z M432.7,275.6c-10.7-0.5-21.6-0.8-32.7-0.8
		c-11.2,0-22.2,0.3-33,0.9c10.7-13.9,21.7-26.6,32.6-38.1C410.7,249,421.8,261.7,432.7,275.6z M267.4,167c3.6-2.1,8.2-3.1,13.7-3.1
		l0-0.1c24.6,0,61.1,19.5,99.9,55.2c-16.6,17.5-33.2,37.4-49,59.3c-26.8,2.9-52.2,7.3-75.5,13.2c-2.8-11.9-4.8-23.4-6.2-34.4
		C244.5,211.7,251.3,176.5,267.4,167z M237.9,468.7c-11.8-3.7-22.9-7.7-33.3-12.1l0,0c-42.1-17.9-69.3-41.3-69.3-60
		c0-18.6,27.1-42.3,69.1-60.2c10.2-4.4,21.4-8.4,32.9-12.1c6.8,23.3,15.8,47.5,26.8,72.3C253.3,421.4,244.5,445.5,237.9,468.7z
		 M282.3,629.4c-5.3-0.1-9.9-1.2-13.4-3.2l0,0c-16.2-9.2-23.2-44.5-17.8-89.9c1.3-11.2,3.4-22.9,6-34.9c23.3,5.7,48.7,10,75.4,12.8
		c16.1,21.9,32.7,41.9,49.5,59.3C343.3,609.6,307,629.4,282.3,629.4z M400.8,554.7c-11.1-11.4-22.1-24.1-33.1-38
		c10.7,0.5,21.6,0.8,32.7,0.8c11.2,0,22.2-0.3,33-0.9C422.7,530.6,411.7,543.3,400.8,554.7z M533.2,625.3c-3.6,2.1-8.2,3.1-13.7,3.1
		c-24.6,0-61.1-19.5-99.9-55.2c16.6-17.5,33.2-37.4,49-59.3c26.8-2.9,52.2-7.3,75.5-13.2c2.8,12,4.9,23.5,6.2,34.6
		C556.1,580.6,549.2,615.9,533.2,625.3z M596,455.9L596,455.9c-10.2,4.4-21.4,8.4-32.9,12.1c-6.8-23.3-15.8-47.5-26.8-72.3
		c10.9-24.7,19.6-48.8,26.2-72c11.8,3.7,22.9,7.7,33.4,12.1c42.1,17.9,69.3,41.3,69.3,60C665.2,414.4,638,438,596,455.9z"/>
	<circle fill="#FFFFFF" cx="399.5" cy="397.1" r="54.3"/>
</g>
</svg>
